<svg width="24" height="24" viewBox="0 0 24 24" fill="none" xmlns="http://www.w3.org/2000/svg">
<path d="M19.0959 6.49378C19.0286 6.44128 18.9501 6.40481 18.8665 6.38715C18.783 6.36948 18.6965 6.37109 18.6136 6.39183L14.3154 7.46621L10.0017 5.30902C9.88153 5.24907 9.74386 5.23411 9.61359 5.26683L5.11359 6.39183C4.9919 6.42225 4.88387 6.49247 4.80667 6.59133C4.72946 6.69019 4.68752 6.81202 4.6875 6.93746V17.0625C4.68751 17.1479 4.707 17.2323 4.74449 17.3091C4.78198 17.3859 4.83648 17.4532 4.90386 17.5058C4.97123 17.5584 5.0497 17.5949 5.13332 17.6126C5.21693 17.6304 5.30348 17.6288 5.38641 17.6081L9.68461 16.5337L13.9983 18.6909C14.0766 18.7295 14.1627 18.7497 14.25 18.75C14.296 18.7499 14.3418 18.7443 14.3864 18.7331L18.8864 17.6081C19.0081 17.5777 19.1161 17.5074 19.1933 17.4086C19.2705 17.3097 19.3125 17.1879 19.3125 17.0625V6.93746C19.3125 6.8519 19.293 6.76747 19.2555 6.69059C19.218 6.61371 19.1634 6.5464 19.0959 6.49378ZM10.3125 6.7223L13.6875 8.4098V17.2776L10.3125 15.5901V6.7223ZM5.8125 7.37691L9.1875 6.53316V15.498L5.8125 16.3418V7.37691ZM18.1875 16.623L14.8125 17.4668V8.50191L18.1875 7.65816V16.623Z" fill="#444444"/>
</svg>
