<svg width="24" height="24" viewBox="0 0 24 24" fill="none" xmlns="http://www.w3.org/2000/svg">
<path d="M11.9998 3.50037C15.5023 3.50037 18.6667 6.1736 18.6667 10.35C18.6667 11.6351 18.1711 13.095 17.0935 14.7445C16.0172 16.3919 14.3839 18.1905 12.1746 20.142C12.0778 20.2243 11.9317 20.225 11.8347 20.1429C9.62036 18.1911 7.98545 16.3911 6.90796 14.7435C5.82942 13.0943 5.33374 11.635 5.33374 10.35C5.33377 6.17373 8.49736 3.50053 11.9998 3.50037ZM11.9998 7.66638C10.6235 7.66656 9.49993 8.79012 9.49976 10.1664C9.49976 11.5428 10.6234 12.6662 11.9998 12.6664C13.3763 12.6664 14.4998 11.5429 14.4998 10.1664C14.4996 8.79001 13.3762 7.66638 11.9998 7.66638Z" fill="#FE8542" stroke="#F7F7F7" stroke-width="1.33333"/>
</svg>
