<svg width="24" height="24" viewBox="0 0 24 24" fill="none" xmlns="http://www.w3.org/2000/svg">
<path d="M4 8C4 7.46957 4.21071 6.96086 4.58579 6.58579C4.96086 6.21071 5.46957 6 6 6H18C18.5304 6 19.0391 6.21071 19.4142 6.58579C19.7893 6.96086 20 7.46957 20 8V16C20 16.5304 19.7893 17.0391 19.4142 17.4142C19.0391 17.7893 18.5304 18 18 18H6C5.46957 18 4.96086 17.7893 4.58579 17.4142C4.21071 17.0391 4 16.5304 4 16V8ZM6 7C5.73478 7 5.48043 7.10536 5.29289 7.29289C5.10536 7.48043 5 7.73478 5 8V8.217L12 12.417L19 8.217V8C19 7.73478 18.8946 7.48043 18.7071 7.29289C18.5196 7.10536 18.2652 7 18 7H6ZM19 9.383L14.292 12.208L19 15.105V9.383ZM18.966 16.259L13.326 12.788L12 13.583L10.674 12.788L5.034 16.258C5.09083 16.4708 5.21632 16.6589 5.39099 16.7931C5.56566 16.9272 5.77975 17 6 17H18C18.2201 17 18.4341 16.9274 18.6088 16.7934C18.7834 16.6595 18.909 16.4716 18.966 16.259ZM5 15.105L9.708 12.208L5 9.383V15.105Z" fill="#444444"/>
</svg>
