<svg width="24" height="24" viewBox="0 0 24 24" fill="none" xmlns="http://www.w3.org/2000/svg">
<path d="M9.44444 11.5556C9.44444 12.145 9.21032 12.7102 8.79357 13.1269C8.37682 13.5437 7.81159 13.7778 7.22222 13.7778C6.63285 13.7778 6.06762 13.5437 5.65087 13.1269C5.23413 12.7102 5 12.145 5 11.5556C5 10.9662 5.23413 10.401 5.65087 9.98425C6.06762 9.5675 6.63285 9.33337 7.22222 9.33337C7.81159 9.33337 8.37682 9.5675 8.79357 9.98425C9.21032 10.401 9.44444 10.9662 9.44444 11.5556Z" stroke="#444444" stroke-width="1.21905"/>
<path opacity="0.5" d="M14.1735 16.2686L9.44458 13.1468M14.2624 7.41345L9.53347 10.5335" stroke="#444444" stroke-width="1.21905" stroke-linecap="round"/>
<path d="M18.3331 17.7778C18.3331 18.3671 18.099 18.9324 17.6822 19.3491C17.2655 19.7659 16.7003 20 16.1109 20C15.5215 20 14.9563 19.7659 14.5395 19.3491C14.1228 18.9324 13.8887 18.3671 13.8887 17.7778C13.8887 17.1884 14.1228 16.6232 14.5395 16.2064C14.9563 15.7897 15.5215 15.5556 16.1109 15.5556C16.7003 15.5556 17.2655 15.7897 17.6822 16.2064C18.099 16.6232 18.3331 17.1884 18.3331 17.7778ZM18.3331 6.22222C18.3331 6.81159 18.099 7.37682 17.6822 7.79357C17.2655 8.21032 16.7003 8.44444 16.1109 8.44444C15.5215 8.44444 14.9563 8.21032 14.5395 7.79357C14.1228 7.37682 13.8887 6.81159 13.8887 6.22222C13.8887 5.63285 14.1228 5.06762 14.5395 4.65087C14.9563 4.23413 15.5215 4 16.1109 4C16.7003 4 17.2655 4.23413 17.6822 4.65087C18.099 5.06762 18.3331 5.63285 18.3331 6.22222Z" stroke="#444444" stroke-width="1.21905"/>
</svg>
