<svg width="24" height="24" viewBox="0 0 24 24" fill="none" xmlns="http://www.w3.org/2000/svg">
<path d="M14.2655 11.0081L10.6227 8.64443C10.5312 8.58505 10.4249 8.55094 10.3151 8.54576C10.2053 8.54059 10.0961 8.56453 9.99915 8.61503C9.90222 8.66554 9.82121 8.74071 9.76474 8.83253C9.70828 8.92435 9.6785 9.02936 9.67857 9.13637V13.8636C9.6785 13.9706 9.70828 14.0757 9.76474 14.1675C9.82121 14.2593 9.90222 14.3345 9.99915 14.385C10.0961 14.4355 10.2053 14.4594 10.3151 14.4542C10.4249 14.4491 10.5312 14.415 10.6227 14.3556L14.2655 11.9919C14.3488 11.938 14.4171 11.8649 14.4643 11.779C14.5116 11.6932 14.5363 11.5974 14.5363 11.5C14.5363 11.4026 14.5116 11.3068 14.4643 11.221C14.4171 11.1351 14.3488 11.062 14.2655 11.0081ZM10.8929 12.7594V10.2443L12.8342 11.5L10.8929 12.7594ZM19.5697 7.18046C19.4982 6.90816 19.3612 6.65631 19.17 6.44569C18.9788 6.23506 18.7388 6.07171 18.47 5.96909C15.8684 4.99114 11.7277 5 11.5 5C11.2723 5 7.13161 4.99114 4.53 5.96909C4.26116 6.07171 4.02124 6.23506 3.83004 6.44569C3.63883 6.65631 3.50182 6.90816 3.43031 7.18046C3.23375 7.91762 3 9.26489 3 11.5C3 13.7351 3.23375 15.0824 3.43031 15.8195C3.50172 16.092 3.63868 16.344 3.82989 16.5547C4.0211 16.7655 4.26107 16.929 4.53 17.0316C7.02232 17.9675 10.9232 18 11.4499 18H11.5501C12.0768 18 15.98 17.9675 18.47 17.0316C18.7389 16.929 18.9789 16.7655 19.1701 16.5547C19.3613 16.344 19.4983 16.092 19.5697 15.8195C19.7663 15.0809 20 13.7351 20 11.5C20 9.26489 19.7663 7.91762 19.5697 7.18046ZM18.3941 15.527C18.371 15.6177 18.3261 15.7017 18.2632 15.7722C18.2003 15.8426 18.1211 15.8976 18.0321 15.9326C15.6301 16.8352 11.5448 16.8189 11.5053 16.8189H11.5C11.459 16.8189 7.37674 16.8337 4.97321 15.9326C4.88425 15.8976 4.80505 15.8426 4.74213 15.7722C4.6792 15.7017 4.63433 15.6177 4.61121 15.527C4.42679 14.8527 4.21429 13.6103 4.21429 11.5C4.21429 9.38972 4.42679 8.14733 4.60589 7.47665C4.62859 7.38549 4.67326 7.3009 4.73621 7.22987C4.79916 7.15884 4.87858 7.10342 4.9679 7.06818C7.28415 6.19733 11.1653 6.18182 11.4833 6.18182H11.5038C11.5448 6.18182 15.6308 6.16853 18.0306 7.06818C18.1195 7.10313 18.1987 7.1581 18.2617 7.22859C18.3246 7.29908 18.3695 7.38307 18.3926 7.4737C18.5732 8.14733 18.7857 9.38972 18.7857 11.5C18.7857 13.6103 18.5732 14.8527 18.3941 15.5234V15.527Z" fill="#444444"/>
</svg>
